<svg width="324" height="290" xmlns="http://www.w3.org/2000/svg">
   <path id="svg_2" d="m205.43,0.32c39.54,-0.32 79.07,-0.08 118.6,-0.13c0.01,11.99 0,23.98 -0.01,35.97c-30.6,0.11 -61.21,-0.12 -91.81,0.1c-26.33,67.87 -52.11,135.95 -78.18,203.92c-5.91,16.03 -12.57,31.79 -18.23,47.92c-12.26,0.11 -24.53,0.1 -36.79,0.09c-20.23,-43.75 -38.86,-88.22 -59,-132.01c-13.34,0.02 -26.67,-0.03 -40.01,-0.02c0.06,-9.99 0.06,-19.98 0,-29.97c21.64,0.26 43.3,-0.61 64.93,0.24c3.08,0.11 3.85,3.56 5.01,5.78c15.14,35.42 30.39,70.8 45.66,106.16c30.07,-79.3 59.61,-158.8 89.83,-238.05z" fill="#fff"/>
</svg>